<svg width="32" height="31" viewBox="0 0 32 31" fill="none" xmlns="http://www.w3.org/2000/svg">
<path d="M30.7341 14.9808C30.266 13.6567 29.2243 12.615 27.9002 12.1469V10.8496C27.9002 10.5643 27.6689 10.3329 27.3835 10.3329H26.8669V2.58323H30.4834C30.7687 2.58323 31.0001 2.35191 31.0001 2.06659V0.516647C31.0001 0.231329 30.7687 0 30.4834 0H0.517902C0.232583 0 0.00125484 0.231329 0.00125484 0.516647V2.06659C0.00125484 2.35191 0.232583 2.58323 0.517902 2.58323H4.13443V13.4328H3.61778C3.33246 13.4328 3.10114 13.6641 3.10114 13.9495V15.2468C0.68 16.1028 -0.58882 18.7594 0.267199 21.1806C1.12322 23.6017 3.77988 24.8705 6.20102 24.0145C8.62215 23.1585 9.89097 20.5018 9.03495 18.0807C8.56681 16.7565 7.52518 15.7149 6.20102 15.2468V13.9495C6.20102 13.6641 5.96969 13.4328 5.68437 13.4328H5.16772V2.58323H14.984V20.1492H14.4674C14.182 20.1492 13.9507 20.3806 13.9507 20.6659V21.9632C11.5296 22.8192 10.2608 25.4759 11.1168 27.897C11.9728 30.3181 14.6295 31.587 17.0506 30.7309C19.4717 29.8749 20.7406 27.2183 19.8845 24.7971C19.4164 23.4729 18.3748 22.4313 17.0506 21.9632V20.6659C17.0506 20.3806 16.8193 20.1492 16.534 20.1492H16.0173V2.58323H25.8336V10.3329H25.3169C25.0316 10.3329 24.8003 10.5643 24.8003 10.8496V12.1469C22.3792 13.0029 21.1103 15.6596 21.9664 18.0807C22.8224 20.5018 25.479 21.7707 27.9002 20.9146C30.3213 20.0586 31.5901 17.402 30.7341 14.9808ZM4.13443 14.4661H5.16772V15.0117C4.82435 14.9731 4.47781 14.9731 4.13443 15.0117V14.4661ZM5.3625 16.093C5.42656 16.1054 5.49166 16.1132 5.55521 16.1292C7.15255 16.5416 8.26838 17.9828 8.2676 19.6326C8.26644 21.6299 6.6463 23.2481 4.64895 23.247C2.65159 23.2458 1.03339 21.6257 1.03455 19.6283C1.03552 17.9814 2.14909 16.5431 3.74333 16.1297C4.27367 15.998 4.82667 15.9856 5.3625 16.093ZM14.984 21.1825H16.0173V21.7281C15.6739 21.6895 15.3274 21.6895 14.984 21.7281V21.1825ZM16.2121 22.8094C16.2761 22.8218 16.3412 22.8296 16.4048 22.8456C18.0021 23.258 19.118 24.6992 19.1172 26.349C19.116 28.3463 17.4959 29.9646 15.4985 29.9634C13.5012 29.9622 11.883 28.3421 11.8841 26.3447C11.8851 24.6978 12.9987 23.2595 14.5929 22.8461C15.1233 22.7144 15.6763 22.702 16.2121 22.8094ZM1.03455 1.54994V1.03329H29.9668V1.54994H1.03455ZM25.8336 11.3662H26.8669V11.9118C26.5235 11.8733 26.177 11.8733 25.8336 11.9118V11.3662ZM26.3481 20.1471C24.3508 20.1459 22.7326 18.5258 22.7337 16.5284C22.7347 14.8815 23.8483 13.4432 25.4425 13.0298C25.9729 12.8982 26.5258 12.8857 27.0617 12.9932C27.1257 13.0056 27.1908 13.0133 27.2544 13.0293C28.8517 13.4417 29.9675 14.8829 29.9668 16.5327C29.9656 18.5301 28.3455 20.1483 26.3481 20.1471Z" fill="black"/>
</svg>
